# xmcd CD database file
#
# Track frame offsets:
#	150
#	36975
#	69075
#	88125
#	118200
#	154125
#	180975
#	208950
#	228900
#	263550
#
# Disc length: 3614 seconds
#
# Revision: 0
# Processed by: cddbd v1.5.2PL0 Copyright (c) Steve Scherf et al.
# Submitted via: CDex 1.70beta2
#
DISCID=830e1c0a
DTITLE=田中裕一  - A HILL OF THE SUN
DYEAR=2011
DGENRE=Jazz
TTITLE0=Voyager (Song for Asteroid Explorer "HAYABUSA")
TTITLE1=Does the Robot Dream of...? Song for Shingo.(Inspired by Kazuo Umezu "My Name is Shingo")
TTITLE2=Tune3
TTITLE3=Good Life (Some place better than where I've been.)
TTITLE4=ZERO
TTITLE5=A Hill of the Sun
TTITLE6=Peekskill (NYC)
TTITLE7=Like Someone In Love
TTITLE8=Derek.T
TTITLE9=The End of "A Hill of the Sun" (Peekskill - Major)
EXTD=YEAR: 2011
EXTT0=
EXTT1=
EXTT2=
EXTT3=
EXTT4=
EXTT5=
EXTT6=
EXTT7=
EXTT8=
EXTT9=
PLAYORDER=
